<svg width="798" height="70" viewBox="0 0 798 70" fill="none" xmlns="http://www.w3.org/2000/svg">
<path d="M27.36 69.504C21.984 69.504 16.832 68.8 11.904 67.392C6.976 65.92 3.008 64.032 0 61.728L5.28 50.016C8.16 52.064 11.552 53.76 15.456 55.104C19.424 56.384 23.424 57.024 27.456 57.024C30.528 57.024 32.992 56.736 34.848 56.16C36.768 55.52 38.176 54.656 39.072 53.568C39.968 52.48 40.416 51.232 40.416 49.824C40.416 48.032 39.712 46.624 38.304 45.6C36.896 44.512 35.04 43.648 32.736 43.008C30.432 42.304 27.872 41.664 25.056 41.088C22.304 40.448 19.52 39.68 16.704 38.784C13.952 37.888 11.424 36.736 9.12 35.328C6.816 33.92 4.928 32.064 3.456 29.76C2.048 27.456 1.344 24.512 1.344 20.928C1.344 17.088 2.368 13.6 4.416 10.464C6.528 7.264 9.664 4.736 13.824 2.88C18.048 0.959999 23.328 0 29.664 0C33.888 0 38.048 0.511999 42.144 1.536C46.24 2.496 49.856 3.968 52.992 5.952L48.192 17.76C45.056 15.968 41.92 14.656 38.784 13.824C35.648 12.928 32.576 12.48 29.568 12.48C26.56 12.48 24.096 12.832 22.176 13.536C20.256 14.24 18.88 15.168 18.048 16.32C17.216 17.408 16.8 18.688 16.8 20.16C16.8 21.888 17.504 23.296 18.912 24.384C20.32 25.408 22.176 26.24 24.48 26.88C26.784 27.52 29.312 28.16 32.064 28.8C34.88 29.44 37.664 30.176 40.416 31.008C43.232 31.84 45.792 32.96 48.096 34.368C50.4 35.776 52.256 37.632 53.664 39.936C55.136 42.24 55.872 45.152 55.872 48.672C55.872 52.448 54.816 55.904 52.704 59.04C50.592 62.176 47.424 64.704 43.2 66.624C39.04 68.544 33.76 69.504 27.36 69.504Z" fill="#787878"/>
<path d="M66.4987 68.352V1.152H95.5868C101.603 1.152 106.787 2.144 111.139 4.128C115.491 6.048 118.851 8.832 121.219 12.48C123.587 16.128 124.771 20.48 124.771 25.536C124.771 30.528 123.587 34.848 121.219 38.496C118.851 42.144 115.491 44.96 111.139 46.944C106.787 48.864 101.603 49.824 95.5868 49.824H75.1387L82.0508 42.816V68.352H66.4987ZM82.0508 44.544L75.1387 37.152H94.7227C99.5227 37.152 103.107 36.128 105.475 34.08C107.843 32.032 109.027 29.184 109.027 25.536C109.027 21.824 107.843 18.944 105.475 16.896C103.107 14.848 99.5227 13.824 94.7227 13.824H75.1387L82.0508 6.432V44.544Z" fill="#787878"/>
<path d="M135.874 68.352V1.152L178.312 49.3521H169.812L207.812 4.85205L211.426 1.152L211.618 68.352H197.026L196.93 23.52L202.312 29.3521L174.312 68.352L142.312 29.3521L150.466 23.52V68.352H135.874Z" fill="#787878"/>
<path d="M159.812 50.6529V28.3521L173.812 44.3521L186.812 29.4779V50.8521L174.312 68.352L159.812 50.6529Z" fill="#F6C31E"/>
<path d="M313.488 28.856C313.332 27.2804 312.661 26.0565 311.476 25.1841C310.291 24.3117 308.683 23.8755 306.652 23.8755C305.272 23.8755 304.106 24.0708 303.156 24.4614C302.205 24.839 301.476 25.3664 300.968 26.0435C300.473 26.7205 300.226 27.4888 300.226 28.3481C300.2 29.0643 300.35 29.6893 300.675 30.2231C301.014 30.757 301.476 31.2192 302.062 31.6099C302.648 31.9875 303.325 32.3195 304.093 32.606C304.861 32.8794 305.682 33.1138 306.554 33.3091L310.148 34.1685C311.893 34.5591 313.494 35.0799 314.953 35.731C316.411 36.382 317.674 37.1828 318.742 38.1333C319.809 39.0838 320.636 40.2036 321.222 41.4927C321.821 42.7817 322.127 44.2596 322.14 45.9263C322.127 48.3742 321.502 50.4966 320.265 52.2935C319.041 54.0773 317.27 55.464 314.953 56.4536C312.648 57.4302 309.868 57.9185 306.613 57.9185C303.384 57.9185 300.571 57.4237 298.175 56.4341C295.792 55.4445 293.931 53.9797 292.589 52.0396C291.261 50.0864 290.565 47.6711 290.5 44.7935H298.683C298.774 46.1346 299.158 47.2544 299.835 48.1528C300.526 49.0382 301.444 49.7088 302.589 50.1646C303.748 50.6073 305.057 50.8286 306.515 50.8286C307.947 50.8286 309.191 50.6203 310.246 50.2036C311.313 49.7869 312.14 49.2075 312.726 48.4653C313.312 47.7231 313.605 46.8703 313.605 45.9067C313.605 45.0083 313.338 44.2531 312.804 43.6411C312.283 43.0291 311.515 42.5083 310.5 42.0786C309.497 41.6489 308.266 41.2583 306.808 40.9067L302.453 39.813C299.08 38.9927 296.417 37.7101 294.464 35.9653C292.511 34.2205 291.541 31.8703 291.554 28.9145C291.541 26.4927 292.186 24.3768 293.488 22.5669C294.803 20.757 296.606 19.3442 298.898 18.3286C301.19 17.313 303.794 16.8052 306.71 16.8052C309.679 16.8052 312.27 17.313 314.484 18.3286C316.71 19.3442 318.442 20.757 319.679 22.5669C320.916 24.3768 321.554 26.4731 321.593 28.856H313.488Z" fill="#787878"/>
<path d="M350.136 57.8599C348.847 57.8599 347.74 57.4041 346.815 56.4927C345.904 55.5682 345.448 54.4614 345.448 53.1724C345.448 51.8963 345.904 50.8026 346.815 49.8911C347.74 48.9797 348.847 48.5239 350.136 48.5239C351.386 48.5239 352.479 48.9797 353.417 49.8911C354.354 50.8026 354.823 51.8963 354.823 53.1724C354.823 54.0317 354.602 54.8195 354.159 55.5356C353.729 56.2388 353.163 56.8052 352.46 57.2349C351.757 57.6515 350.982 57.8599 350.136 57.8599Z" fill="#787878"/>
<path d="M379.41 57.3521V17.352H395.192C398.226 17.352 400.81 17.9315 402.946 19.0903C405.081 20.2362 406.709 21.8312 407.828 23.8755C408.961 25.9067 409.528 28.2505 409.528 30.9067C409.528 33.563 408.955 35.9067 407.809 37.938C406.663 39.9692 405.003 41.5513 402.828 42.6841C400.667 43.8169 398.05 44.3833 394.977 44.3833H384.918V37.606H393.61C395.237 37.606 396.578 37.326 397.633 36.7661C398.701 36.1932 399.495 35.4054 400.016 34.4028C400.55 33.3872 400.817 32.2218 400.817 30.9067C400.817 29.5786 400.55 28.4198 400.016 27.4302C399.495 26.4276 398.701 25.6528 397.633 25.106C396.565 24.5461 395.211 24.2661 393.571 24.2661H387.867V57.3521H379.41Z" fill="#787878"/>
<path d="M435.448 57.8599C434.159 57.8599 433.052 57.4041 432.128 56.4927C431.216 55.5682 430.76 54.4614 430.76 53.1724C430.76 51.8963 431.216 50.8026 432.128 49.8911C433.052 48.9797 434.159 48.5239 435.448 48.5239C436.698 48.5239 437.792 48.9797 438.729 49.8911C439.667 50.8026 440.135 51.8963 440.135 53.1724C440.135 54.0317 439.914 54.8195 439.471 55.5356C439.042 56.2388 438.475 56.8052 437.772 57.2349C437.069 57.6515 436.294 57.8599 435.448 57.8599Z" fill="#787878"/>
<path d="M493.172 17.352H503.602L514.618 44.2271H515.086L526.102 17.352H536.532V57.3521H528.329V31.3169H527.997L517.645 57.1567H512.059L501.708 31.2192H501.375V57.3521H493.172V17.352Z" fill="#787878"/>
<path d="M567.994 57.3521H558.932L572.74 17.352H583.639L597.428 57.3521H588.365L578.346 26.4927H578.033L567.994 57.3521ZM567.428 41.6294H588.834V48.231H567.428V41.6294Z" fill="#787878"/>
<path d="M634.022 57.3521H619.842V17.352H634.139C638.162 17.352 641.626 18.1528 644.53 19.7544C647.433 21.3429 649.666 23.6281 651.229 26.6099C652.804 29.5916 653.592 33.1593 653.592 37.313C653.592 41.4797 652.804 45.0604 651.229 48.0552C649.666 51.05 647.42 53.3481 644.491 54.9497C641.574 56.5513 638.084 57.3521 634.022 57.3521ZM628.299 50.106H633.67C636.17 50.106 638.273 49.6632 639.979 48.7778C641.698 47.8794 642.987 46.4927 643.846 44.6177C644.718 42.7297 645.155 40.2948 645.155 37.313C645.155 34.3573 644.718 31.9419 643.846 30.0669C642.987 28.1919 641.704 26.8117 639.998 25.9263C638.293 25.0409 636.19 24.5981 633.69 24.5981H628.299V50.106Z" fill="#787878"/>
<path d="M677.457 57.3521V17.352H693.238C696.259 17.352 698.837 17.8924 700.972 18.9731C703.121 20.0409 704.755 21.5578 705.875 23.5239C707.008 25.477 707.574 27.7752 707.574 30.4185C707.574 33.0747 707.001 35.3599 705.855 37.2739C704.709 39.175 703.049 40.6333 700.875 41.6489C698.713 42.6646 696.096 43.1724 693.023 43.1724H682.457V36.3755H691.656C693.271 36.3755 694.612 36.1541 695.679 35.7114C696.747 35.2687 697.541 34.6047 698.062 33.7192C698.596 32.8338 698.863 31.7336 698.863 30.4185C698.863 29.0903 698.596 27.9705 698.062 27.0591C697.541 26.1476 696.741 25.4575 695.66 24.9888C694.592 24.507 693.244 24.2661 691.617 24.2661H685.914V57.3521H677.457ZM699.058 39.1489L709 57.3521H699.664L689.937 39.1489H699.058Z" fill="#787878"/>
<path d="M739.608 17.352V57.3521H731.15V17.352H739.608Z" fill="#787878"/>
<path d="M778.345 57.3521H764.166V17.352H778.462C782.486 17.352 785.949 18.1528 788.853 19.7544C791.757 21.3429 793.99 23.6281 795.552 26.6099C797.128 29.5916 797.916 33.1593 797.916 37.313C797.916 41.4797 797.128 45.0604 795.552 48.0552C793.99 51.05 791.744 53.3481 788.814 54.9497C785.897 56.5513 782.408 57.3521 778.345 57.3521ZM772.623 50.106H777.994C780.494 50.106 782.597 49.6632 784.302 48.7778C786.021 47.8794 787.31 46.4927 788.169 44.6177C789.042 42.7297 789.478 40.2948 789.478 37.313C789.478 34.3573 789.042 31.9419 788.169 30.0669C787.31 28.1919 786.028 26.8117 784.322 25.9263C782.616 25.0409 780.513 24.5981 778.013 24.5981H772.623V50.106Z" fill="#787878"/>
</svg>
